<?xml version="1.0" encoding="UTF-8"?><svg id="arrow" xmlns="http://www.w3.org/2000/svg" xmlns:xlink="http://www.w3.org/1999/xlink" viewBox="0 0 60 60"><defs><style>.cls-1{fill:url(#linear-gradient);}.cls-1,.cls-2{opacity:.4;}.cls-2{fill:url(#linear-gradient-2);}</style><linearGradient id="linear-gradient" x1="29.27" y1="60" x2="29.27" y2="5.78" gradientTransform="matrix(1, 0, 0, 1, 0, 0)" gradientUnits="userSpaceOnUse"><stop offset=".8" stop-color="#aaa"/><stop offset="1" stop-color="#d2d2d2"/></linearGradient><linearGradient id="linear-gradient-2" x1="8.74" x2="8.74" xlink:href="#linear-gradient"/></defs><polygon class="cls-1" points="29.48 5.78 20.53 5.82 22 60 22.01 60 22.01 60 38 60 38 60 38.01 60 29.48 5.78"/><polygon class="cls-2" points="17.48 5.78 8.53 5.82 0 60 .01 60 .01 60 16 60 16 60 16.01 60 17.48 5.78"/><path d="M52.96,35.5c-.37-1.27-1.22-2.35-2.38-2.99l-17.65-9.81c-.54-.3-.91-.83-1.01-1.44l-.74-4.73,7.61,.63h0L25.07,0,12.91,17.16h0l7.91-.61,.22,8.21c.04,1.65,.9,3.17,2.29,4.07l16.43,10.61c.59,.38,1,1,1.11,1.69l3.13,18.87h16l-7.04-24.5ZM30.75,13.72l.21,1.38-.22-1.39h.01Z"/></svg>