<?xml version="1.0" encoding="UTF-8"?><svg id="arrow" xmlns="http://www.w3.org/2000/svg" xmlns:xlink="http://www.w3.org/1999/xlink" viewBox="0 0 60 60"><defs><style>.cls-1{fill:none;}.cls-2{fill:url(#linear-gradient);}.cls-2,.cls-3{opacity:.5;}.cls-4{fill:#fff;}</style><linearGradient id="linear-gradient" x1="30.01" y1="60" x2="30.01" y2="5.78" gradientTransform="matrix(1, 0, 0, 1, 0, 0)" gradientUnits="userSpaceOnUse"><stop offset=".8" stop-color="#aaa"/><stop offset="1" stop-color="#787878"/></linearGradient></defs><rect class="cls-1" width="60" height="60"/><polygon class="cls-2" points="36.04 29.8 52.05 11.42 47.48 6.88 35.11 15.4 34.48 5.78 30.31 5.8 25.53 5.82 24.91 15.4 12.53 6.88 7.97 11.42 23.97 29.8 22 60 22.01 60 22.01 60 30.01 58 38 60 38 60 38.01 60 36.04 29.8"/><polyline class="cls-3" points="30 58 38 60 30 55 22 60"/><polygon class="cls-4" points="35.39 16.56 43.23 17.16 30.04 0 16.85 17.16 24.69 16.56 22.04 60 38.04 60 35.39 16.56"/></svg>