<?xml version="1.0" encoding="UTF-8"?><svg id="arrow" xmlns="http://www.w3.org/2000/svg" xmlns:xlink="http://www.w3.org/1999/xlink" viewBox="0 0 60 60"><defs><style>.cls-1{fill:none;}.cls-2{fill:url(#linear-gradient);opacity:.4;}</style><linearGradient id="linear-gradient" x1="31.94" y1="60" x2="31.94" y2="6.88" gradientTransform="matrix(1, 0, 0, 1, 0, 0)" gradientUnits="userSpaceOnUse"><stop offset=".8" stop-color="#aaa"/><stop offset="1" stop-color="#d2d2d2"/></linearGradient></defs><rect class="cls-1" y="0" width="60" height="60"/><polygon class="cls-2" points="56.94 21.33 41.36 23.69 52.05 11.42 47.48 6.88 35.11 15.4 30.01 18.91 24.91 15.4 12.53 6.88 7.97 11.42 18.7 23.75 7.76 22.06 3.88 28.73 23.62 35.18 22 60 22.01 60 22.01 60 30.01 58 38 60 38 60 38.01 60 36.4 35.17 60 27.96 56.94 21.33"/><path d="M38,59.97H22l1.28-21.78c.11-1.82-1.03-3.48-2.76-4.04l-7.98-2.59-1.87,7.13L0,23.03l19-2.38-2.96,2.69,11.89,1.76c4.67,.69,8.23,4.57,8.51,9.28l1.56,25.59Z"/></svg>