<?xml version="1.0" encoding="UTF-8"?><svg id="arrow" xmlns="http://www.w3.org/2000/svg" xmlns:xlink="http://www.w3.org/1999/xlink" viewBox="0 0 60 60"><defs><style>.cls-1{fill:url(#linear-gradient);opacity:.4;}</style><linearGradient id="linear-gradient" x1="90" y1="59.95" x2="90" y2="-.05" gradientTransform="translate(120) rotate(-180) scale(1 -1)" gradientUnits="userSpaceOnUse"><stop offset="0" stop-color="#d2d2d2"/><stop offset=".2" stop-color="#aaa"/><stop offset=".8" stop-color="#aaa"/><stop offset="1" stop-color="#d2d2d2"/></linearGradient></defs><path class="cls-1" d="M0,59.95L14.48,7.3C15.67,2.95,19.62-.05,24.12-.05H60V22.47h-26.69c-1.3,0-2.39,1-2.49,2.3l-.08,1c-.12,1.45,1.03,2.7,2.49,2.7h26.77v8h-27.81c-1.3,0-2.39,1-2.49,2.3l-1.7,21.17H0Z"/><path d="M39.91,1.93l.79,3.45H24.28c-2.73,0-5.11,1.84-5.8,4.48L5,59.97h15.98L27.23,12.66c.06-.5,.49-.87,.99-.87h13.95l2.01,8.74,15.82-13.26L39.91,1.93Z"/></svg>