<?xml version="1.0" encoding="UTF-8"?><svg id="arrow" xmlns="http://www.w3.org/2000/svg" xmlns:xlink="http://www.w3.org/1999/xlink" viewBox="0 0 60 60"><defs><style>.cls-1{fill:none;}.cls-2{fill:url(#_命名漸層_159);opacity:.5;}.cls-3{font-family:ArialUnicodeMS, 'Arial Unicode MS';font-size:16px;}</style><linearGradient id="_命名漸層_159" x1="29.03" y1="46.8" x2="29.03" y2="8.6" gradientTransform="matrix(1, 0, 0, 1, 0, 0)" gradientUnits="userSpaceOnUse"><stop offset=".8" stop-color="#aaa"/><stop offset="1" stop-color="#d2d2d2"/></linearGradient></defs><g><rect class="cls-1" y="0" width="60" height="60"/><path class="cls-2" d="M53.75,27.2l-.53-5.58h-6.64c-1.25-2.61-3.5-4.84-6.4-6.42l3.27-4.79-5.18-1.81-3.54,4.61c-1.49-.32-3.07-.49-4.69-.49s-3.2,.17-4.69,.49l-3.54-4.61-5.18,1.81,3.27,4.79c-2.9,1.58-5.15,3.81-6.4,6.42H5l-.7,5.58H12.44c.25,2.98,1.73,5.7,4.07,7.86l-6.19,7.39,6.56,4.36,5.83-8.1c2.23,.79,4.71,1.23,7.32,1.23,9.36,0,17.01-5.63,17.59-12.74h6.12Zm-23.72,7.28c-6.61,0-11.97-4.15-11.97-9.27s5.36-9.27,11.97-9.27,11.97,4.15,11.97,9.27-5.36,9.27-11.97,9.27Z"/><path d="M50.32,19.6l.31,2.02h-3.68c-.22,0-.43-.13-.53-.33-2.59-5.03-8.95-8.58-16.39-8.58-9.74,0-17.63,6.09-17.63,13.61,0,5.96,4.96,11.02,11.86,12.86,.27,.07,.46,.32,.45,.61l-1.11,20.2h12.8l-1.16-20.67v-.05l-.08-.96c-.05-.59-.22-1.14-.49-1.63-.71-1.33-2.11-2.22-3.7-2.22h-.94c-6.61,0-11.97-4.15-11.97-9.27s5.36-9.27,11.97-9.27c4.97,0,9.23,2.35,11.04,5.69,.29,.54,.52,1.12,.68,1.71,0,.01,0,.04,.01,.07,.23,2.15,2.02,3.8,4.18,3.8h1.68l3.38,.06,.03,2.62,8.95-5.48-9.68-4.81Z"/></g><text class="cls-3" transform="translate(25.23 30.5)"><tspan x="0" y="0">5</tspan></text></svg>