<?xml version="1.0" encoding="UTF-8"?><svg id="arrow" xmlns="http://www.w3.org/2000/svg" xmlns:xlink="http://www.w3.org/1999/xlink" viewBox="0 0 60 60"><defs><style>.cls-1{fill:none;}.cls-2{fill:url(#linear-gradient);}.cls-2,.cls-3{opacity:.5;}.cls-4{fill:#fff;}</style><linearGradient id="linear-gradient" x1="13.34" y1="51.34" x2="50.37" y2="14.31" gradientTransform="matrix(1, 0, 0, 1, 0, 0)" gradientUnits="userSpaceOnUse"><stop offset=".8" stop-color="#aaa"/><stop offset="1" stop-color="#787878"/></linearGradient></defs><rect class="cls-1" width="60" height="60"/><polygon class="cls-2" points="34.48 5.78 30.31 5.8 25.53 5.82 24.91 15.4 22 60 22.01 60 22.01 60 30.01 58 38 60 38 60 38.01 60 36.79 41.17 56.04 19.99 51.48 15.44 35.87 27.1 34.48 5.78"/><polyline class="cls-3" points="30 58 38 60 30 55 22 60"/><polygon class="cls-4" points="43.23 17.16 30.04 0 16.85 17.16 24.69 16.56 22.04 60 38.04 60 35.39 16.56 43.23 17.16"/></svg>