<?xml version="1.0" encoding="UTF-8"?><svg id="arrow" xmlns="http://www.w3.org/2000/svg" xmlns:xlink="http://www.w3.org/1999/xlink" viewBox="0 0 60 60"><defs><style>.cls-1{fill:url(#linear-gradient);}.cls-1,.cls-2{opacity:.4;}.cls-2{fill:url(#linear-gradient-2);}</style><linearGradient id="linear-gradient" x1="29.27" y1="60" x2="29.27" y2="5.78" gradientTransform="matrix(1, 0, 0, 1, 0, 0)" gradientUnits="userSpaceOnUse"><stop offset=".8" stop-color="#aaa"/><stop offset="1" stop-color="#d2d2d2"/></linearGradient><linearGradient id="linear-gradient-2" x1="8.74" x2="8.74" xlink:href="#linear-gradient"/></defs><polygon class="cls-1" points="29.48 5.78 20.53 5.82 22 60 22.01 60 22.01 60 29.99 58 38 60 38 60 38.01 60 29.48 5.78"/><polygon class="cls-2" points="17.48 5.78 8.53 5.82 0 60 .01 60 .01 60 16 60 16 60 16.01 60 17.48 5.78"/><path d="M49.96,16.12l6.49,1.04L41.65,0l-9.58,17.16h0l8.63-.71,.8,3.86c.18,.85-.21,1.71-.97,2.14l-16.66,9.51c-1.6,.91-2.57,2.63-2.52,4.48l.63,23.56h16l-2.92-18.69c-.12-.76,.21-1.52,.84-1.96l14.37-9.91c1.78-1.22,2.57-3.45,1.96-5.52l-2.28-7.81Z"/></svg>