<?xml version="1.0" encoding="UTF-8"?><svg id="arrow" xmlns="http://www.w3.org/2000/svg" xmlns:xlink="http://www.w3.org/1999/xlink" viewBox="0 0 60 60"><defs><style>.cls-1{fill:url(#linear-gradient);}.cls-1,.cls-2,.cls-3,.cls-4,.cls-5{opacity:.4;}.cls-2{fill:url(#linear-gradient-3);}.cls-3{fill:url(#linear-gradient-4);}.cls-4{fill:url(#linear-gradient-2);}.cls-5{fill:url(#linear-gradient-5);}</style><linearGradient id="linear-gradient" x1="30" y1="31" x2="30" y2="19" gradientTransform="matrix(1, 0, 0, 1, 0, 0)" gradientUnits="userSpaceOnUse"><stop offset=".7" stop-color="#b4b4b4"/><stop offset="1" stop-color="#d2d2d2"/></linearGradient><linearGradient id="linear-gradient-2" x1="40.55" y1="60" x2="40.55" y2="0" gradientTransform="matrix(1, 0, 0, 1, 0, 0)" gradientUnits="userSpaceOnUse"><stop offset=".8" stop-color="#aaa"/><stop offset="1" stop-color="#d2d2d2"/></linearGradient><linearGradient id="linear-gradient-3" x1="36.76" y1="60" x2="36.76" y2="0" gradientTransform="matrix(1, 0, 0, 1, 0, 0)" gradientUnits="userSpaceOnUse"><stop offset=".8" stop-color="#aaa"/><stop offset="1" stop-color="#d2d2d2"/></linearGradient><linearGradient id="linear-gradient-4" x1="19.45" x2="19.45" xlink:href="#linear-gradient-2"/><linearGradient id="linear-gradient-5" x1="23.24" y1="60" x2="23.24" y2="0" xlink:href="#linear-gradient-2"/></defs><path class="cls-1" d="M59,19H1c-.55,0-1,.45-1,1v3c0,.55,.45,1,1,1h3.5v6.5c0,.28,.22,.5,.5,.5h4.11c.23,0,.43-.16,.49-.38l1.41-6.62H49l1.41,6.62c.06,.22,.26,.38,.49,.38h4.11c.28,0,.5-.22,.5-.5v-6.5h3.5c.55,0,1-.45,1-1v-3c0-.55-.45-1-1-1Z"/><g><polygon class="cls-4" points="49.01 60 43.73 26.5 32.09 26.5 32.99 60 33.01 60 33.01 60 48.99 60 48.99 60 49.01 60"/><polygon class="cls-2" points="39.56 0 31.37 0 31.82 16.5 42.15 16.5 39.56 0"/><polygon class="cls-3" points="10.99 60 11.01 60 11.01 60 26.99 60 26.99 60 27.01 60 27.91 26.5 16.27 26.5 10.99 60"/><polygon class="cls-5" points="28.63 0 20.44 0 17.85 16.5 28.18 16.5 28.63 0"/></g><polygon points="34.63 42.66 42.62 43 30 28.58 17.37 43 25.37 42.66 22 60 38 60 34.63 42.66"/></svg>