<?xml version="1.0" encoding="UTF-8"?><svg id="arrow" xmlns="http://www.w3.org/2000/svg" xmlns:xlink="http://www.w3.org/1999/xlink" viewBox="0 0 60 60"><defs><style>.cls-1{fill:none;}.cls-2{fill:url(#_命名漸層_195);opacity:.5;}.cls-3{font-family:ArialUnicodeMS, 'Arial Unicode MS';font-size:16px;}</style><linearGradient id="_命名漸層_195" x1="34.05" y1="39.93" x2="34.05" y2="12.71" gradientTransform="matrix(1, 0, 0, 1, 0, 0)" gradientUnits="userSpaceOnUse"><stop offset=".8" stop-color="#aaa"/><stop offset="1" stop-color="#d2d2d2"/></linearGradient></defs><g><rect class="cls-1" x="0" y="0" width="60" height="60" transform="translate(60 60) rotate(-180)"/><path class="cls-2" d="M55.7,27.2l-.7-5.58h-8.42c-2.48-5.2-8.95-8.9-16.55-8.9-9.74,0-17.63,6.09-17.63,13.61s7.89,13.61,17.63,13.61,17.01-5.63,17.59-12.74h8.07Zm-25.66,7.28c-6.61,0-11.97-4.15-11.97-9.27s5.36-9.27,11.97-9.27,11.97,4.15,11.97,9.27-5.36,9.27-11.97,9.27Z"/><path d="M24.83,39.33v-.05l.08-.96c.18-2.18,2-3.85,4.19-3.85h.94c6.61,0,11.97-4.15,11.97-9.27,0-4.22-3.63-7.77-8.61-8.9-.6-.14-1.22-.24-1.85-.3,0,0-.03,0-.08,0-2.53,.11-4.58-2.02-4.36-4.54v-.14l.32-3.68-2.92,.23L30.05,0l5.58,7.89-3.01-.23,.43,4.8c.02,.27,.23,.49,.51,.54,8.05,1.26,14.11,6.75,14.11,13.33,0,5.96-4.96,11.02-11.87,12.86-.27,.07-.46,.32-.45,.61l1.11,20.2h-12.8l1.16-20.67Z"/></g><text class="cls-3" transform="translate(25.23 30.5)"><tspan x="0" y="0">2</tspan></text></svg>