<?xml version="1.0" encoding="UTF-8"?><svg id="arrow" xmlns="http://www.w3.org/2000/svg" xmlns:xlink="http://www.w3.org/1999/xlink" viewBox="0 0 60 60"><defs><style>.cls-1{fill:none;}.cls-2{fill:url(#linear-gradient);opacity:.4;}</style><linearGradient id="linear-gradient" x1="134.36" y1="60" x2="134.36" y2="6.88" gradientTransform="translate(162.42) rotate(-180) scale(1 -1)" gradientUnits="userSpaceOnUse"><stop offset=".8" stop-color="#aaa"/><stop offset="1" stop-color="#d2d2d2"/></linearGradient></defs><polygon class="cls-2" points="3.06 21.33 18.64 23.69 7.95 11.42 12.52 6.87 24.89 15.4 29.99 18.91 35.09 15.4 47.47 6.88 52.03 11.42 41.3 23.75 52.24 22.06 56.12 28.73 36.38 35.18 38 60 37.99 60 37.99 60 29.99 58 22 60 22 60 21.99 60 23.6 35.17 0 27.96 3.06 21.33"/><path d="M22,59.97h16l-1.28-21.78c-.11-1.82,1.03-3.48,2.76-4.04l7.98-2.59,1.87,7.13,10.68-15.66-19-2.38,2.96,2.69-11.89,1.76c-4.67,.69-8.23,4.57-8.51,9.28l-1.56,25.59Z"/><rect class="cls-1" y="0" width="60" height="60"/></svg>