<?xml version="1.0" encoding="UTF-8"?><svg id="arrow" xmlns="http://www.w3.org/2000/svg" xmlns:xlink="http://www.w3.org/1999/xlink" viewBox="0 0 60 60"><defs><style>.cls-1{fill:none;}.cls-2{fill:#fff;}.cls-3{fill:url(#_命名漸層_13);}.cls-3,.cls-4{opacity:.5;}.cls-4{fill:url(#_命名漸層_13-2);}</style><linearGradient id="_命名漸層_13" x1="41.05" y1="48.42" x2="-2.14" y2="36.85" gradientTransform="matrix(1, 0, 0, 1, 0, 0)" gradientUnits="userSpaceOnUse"><stop offset=".8" stop-color="#aaa"/><stop offset="1" stop-color="#787878"/></linearGradient><linearGradient id="_命名漸層_13-2" x1="81.14" y1="48.42" x2="37.96" y2="36.85" gradientTransform="translate(100.07) rotate(-180) scale(1 -1)" xlink:href="#_命名漸層_13"/></defs><rect class="cls-1" y="0" width="60" height="60"/><path class="cls-3" d="M36.96,48.15l-.37-4.48c-.71-8.57-7.79-15.22-16.39-15.4l-11.68-.25,3.75-3.98L0,28.87l9.36,9.72-1.33-6.84,10.09,1.64c.81,.13,1.61,.32,2.39,.56,2.12,.66,3.45,2.75,3.27,4.96l-1.76,21.09,7.96-1.99,7.96,1.99-.99-11.85Z"/><path class="cls-4" d="M23.02,48.15l.37-4.48c.71-8.57,7.79-15.22,16.39-15.4l11.68-.25-3.75-3.98,12.26,4.83-9.36,9.72,1.33-6.84-10.09,1.64c-.81,.13-1.61,.32-2.39,.56-2.12,.66-3.45,2.75-3.27,4.96l1.76,21.09-7.96-1.99-7.96,1.99,.99-11.85Z"/><polygon class="cls-2" points="37.94 59.95 34.32 16.56 42.1 17.16 30.02 .11 30.02 0 29.98 .05 29.95 0 29.95 .11 17.87 17.16 25.64 16.56 22.02 60 37.95 60 37.94 59.98 38.02 60 37.94 59.95"/></svg>