<?xml version="1.0" encoding="UTF-8"?><svg id="arrow" xmlns="http://www.w3.org/2000/svg" xmlns:xlink="http://www.w3.org/1999/xlink" viewBox="0 0 60 60"><defs><style>.cls-1{fill:none;}.cls-2{fill:url(#linear-gradient);opacity:.5;}.cls-3{fill:#fff;}</style><linearGradient id="linear-gradient" x1="30" y1="59" x2="30" y2="1.21" gradientTransform="matrix(1, 0, 0, 1, 0, 0)" gradientUnits="userSpaceOnUse"><stop offset=".8" stop-color="#aaa"/><stop offset="1" stop-color="#787878"/></linearGradient></defs><rect class="cls-1" width="60" height="60"/><polygon class="cls-3" points="30 54 22 59 30 57 38 59 30 54"/><g><path class="cls-2" d="M51.68,28.27h8.32l-2.5-8h-6.51c-2.43-5.98-9.04-10.54-17.18-11.64h.03l-.66-7.43h-6.36l-.65,7.38v.05c-8.13,1.11-14.72,5.66-17.15,11.63H2.5L0,28.27H8.32c1.41,6.33,7.34,11.46,15.13,13.33-.09,2.34-1.45,17.4-1.45,17.4h16s-1.7-17.34-1.46-17.39c7.79-1.87,13.73-7.01,15.13-13.33Zm-21.68,7.32c-8.28,0-15-5.19-15-11.59s6.72-11.59,15-11.59,15,5.19,15,11.59-6.72,11.59-15,11.59Z"/><path class="cls-3" d="M37.33,41.44c8.54-2.33,14.67-8.63,14.67-16.03,0-5.11-2.95-9.75-7.58-12.89l.39-.27c.96-.66,2.25-1.57,2.25-1.57l-15.02-3.25,4.29,13.08s2.74-2.87,4.4-4.62c2.64,2.09,4.27,4.95,4.27,8.1,0,4.93-3.98,9.14-9.59,10.81h0c-1.68,.5-3.5,.78-5.41,.78h-1.44c-2.6,0-4.77,1.99-4.99,4.58l-.12,1.43-1.45,17.4h16s-1.09-12.98-1.38-16.56c-.04-.46,.27-.87,.72-1Z"/></g></svg>