<?xml version="1.0" encoding="UTF-8"?><svg id="arrow" xmlns="http://www.w3.org/2000/svg" xmlns:xlink="http://www.w3.org/1999/xlink" viewBox="0 0 60 60"><defs><style>.cls-1{fill:url(#linear-gradient);opacity:.4;}</style><linearGradient id="linear-gradient" x1="30" y1="40" x2="30" y2="0" gradientTransform="matrix(1, 0, 0, 1, 0, 0)" gradientUnits="userSpaceOnUse"><stop offset=".8" stop-color="#aaa"/><stop offset="1" stop-color="#d2d2d2"/></linearGradient></defs><path class="cls-1" d="M0,2.5V39.97s.01,.03,.03,.03H13.95s.03-.01,.03-.03v-13.19c0-8.73,6.85-16.13,15.58-16.35,9.03-.23,16.42,7.02,16.42,15.99v13.55s.01,.03,.03,.03h13.96s.03-.01,.03-.03V2.5c0-1.38-1.12-2.5-2.5-2.5H2.5C1.12,0,0,1.12,0,2.5Z"/><polygon points="34.63 42.66 42.63 43 30 28.58 17.38 43 25.37 42.66 22 60 38 60 34.63 42.66"/></svg>