<?xml version="1.0" encoding="UTF-8"?><svg id="arrow" xmlns="http://www.w3.org/2000/svg" xmlns:xlink="http://www.w3.org/1999/xlink" viewBox="0 0 60 60"><defs><style>.cls-1{fill:none;}.cls-2,.cls-3{fill:#fff;}.cls-4{fill:url(#_命名漸層_13);opacity:.5;}.cls-3{font-family:ArialUnicodeMS, 'Arial Unicode MS';font-size:16px;}</style><linearGradient id="_命名漸層_13" x1="30" y1="46.8" x2="30" y2="8.6" gradientTransform="matrix(1, 0, 0, 1, 0, 0)" gradientUnits="userSpaceOnUse"><stop offset=".8" stop-color="#aaa"/><stop offset="1" stop-color="#787878"/></linearGradient></defs><rect class="cls-1" width="60" height="60"/><path class="cls-4" d="M47.63,27.2h8.07l-.7-5.58h-8.42c-1.25-2.61-3.5-4.84-6.4-6.42l3.27-4.79-5.18-1.81-3.54,4.61c-1.49-.32-3.07-.49-4.69-.49s-3.2,.17-4.69,.49l-3.54-4.61-5.18,1.81,3.27,4.79c-2.9,1.58-5.15,3.81-6.4,6.42H5l-.7,5.58H12.44c.25,2.98,1.73,5.7,4.07,7.86l-6.19,7.39,6.56,4.36,5.83-8.1c2.23,.79,4.71,1.23,7.32,1.23s5.05-.44,7.27-1.21l5.81,8.08,6.56-4.36-6.16-7.35c2.36-2.16,3.86-4.89,4.11-7.89Zm-29.56-2c0-5.12,5.36-9.27,11.97-9.27s11.97,4.15,11.97,9.27-5.36,9.27-11.97,9.27-11.97-4.15-11.97-9.27Z"/><path class="cls-2" d="M43.88,35.52c-.2-.24-.18-.59,.05-.82,2.34-2.31,3.74-5.22,3.74-8.38,0-7.52-7.89-13.61-17.63-13.61s-17.63,6.09-17.63,13.61c0,5.96,4.96,11.02,11.86,12.86,.27,.07,.46,.32,.45,.61l-1.11,20.2h12.8l-1.16-20.67v-.05l-.08-.96c-.05-.59-.22-1.14-.49-1.63-.71-1.33-2.11-2.22-3.7-2.22h-.94c-6.61,0-11.97-4.15-11.97-9.27s5.36-9.27,11.97-9.27,11.97,4.15,11.97,9.27c0,2.01-.84,3.87-2.25,5.39-.46,.5-.98,.96-1.56,1.37l-.03,.02c-2.15,1.26-2.77,4.07-1.32,6.09l.46,.64,5.59,7.77-2.93,2.08,13.51,5.01-2.7-13.92-2,1.72h0l-4.9-5.85Z"/><text class="cls-3" transform="translate(25.23 30.5)"><tspan x="0" y="0">6</tspan></text></svg>