<?xml version="1.0" encoding="UTF-8"?><svg id="arrow" xmlns="http://www.w3.org/2000/svg" xmlns:xlink="http://www.w3.org/1999/xlink" viewBox="0 0 60 60"><defs><style>.cls-1{fill:none;}.cls-2{fill:url(#linear-gradient);opacity:.4;}</style><linearGradient id="linear-gradient" x1="30" y1="60" x2="30" y2="35.5" gradientTransform="matrix(1, 0, 0, 1, 0, 0)" gradientUnits="userSpaceOnUse"><stop offset=".8" stop-color="#aaa"/><stop offset="1" stop-color="#d2d2d2"/></linearGradient></defs><rect class="cls-1" width="60" height="60"/><path class="cls-2" d="M59,35.5h-3c-.55,0-1,.45-1,1v6c0,.28-.22,.5-.5,.5H5.5c-.28,0-.5-.22-.5-.5v-6c0-.55-.45-1-1-1H1C.45,35.5,0,35.95,0,36.5v10.5C0,47.55,.45,48,1,48H12v11.5c0,.28,.22,.5,.5,.5h4.11c.23,0,.43-.16,.49-.38l1.41-11.62h23l1.41,11.62c.06,.22,.26,.38,.49,.38h4.11c.28,0,.5-.22,.5-.5v-11.5h11c.55,0,1-.45,1-1v-10.5c0-.55-.45-1-1-1Z"/><g><path d="M10,16.17c-1.38,0-2.5,1.12-2.5,2.5v9.8c0,1.38,1.12,2.5,2.5,2.5H50c1.38,0,2.5-1.12,2.5-2.5v-9.8c0-1.38-1.12-2.5-2.5-2.5h-.19c-.96-2.56-3.72-9.83-5.05-12.43C43.13,.54,40.15-.11,38.58,.01H22.21c-3.34,0-5.37,2.24-6.05,3.56l-5.32,12.6h-.84Zm38.86,7.33c0,1.93-1.57,3.5-3.5,3.5s-3.5-1.57-3.5-3.5,1.57-3.5,3.5-3.5c1.93,0,3.5,1.57,3.5,3.5ZM19.26,5.12c.16-.27,1.08-1.65,2.95-1.65h16.62s1.83-.17,2.85,1.83c1.07,2.1,3.26,7.75,4.44,10.86H14.6l4.66-11.05Zm-3.9,14.88c1.93,0,3.5,1.57,3.5,3.5s-1.57,3.5-3.5,3.5-3.5-1.57-3.5-3.5c0-1.93,1.57-3.5,3.5-3.5Z"/><path d="M14.31,40.4h2.31c1.27,0,2.31-1.03,2.31-2.31v-7.12h-6.92v7.12c0,1.27,1.03,2.31,2.31,2.31Z"/><path d="M43.31,40.4h2.31c1.27,0,2.31-1.03,2.31-2.31v-7.12h-6.92v7.12c0,1.27,1.03,2.31,2.31,2.31Z"/></g></svg>