<?xml version="1.0" encoding="UTF-8"?><svg id="arrow" xmlns="http://www.w3.org/2000/svg" xmlns:xlink="http://www.w3.org/1999/xlink" viewBox="0 0 60 60"><defs><style>.cls-1{fill:none;}.cls-2{fill:url(#linear-gradient);opacity:.4;}</style><linearGradient id="linear-gradient" x1="-109.6" y1="54" x2="-73.31" y2="17.71" gradientTransform="translate(-80.21) rotate(-180) scale(1 -1)" gradientUnits="userSpaceOnUse"><stop offset=".8" stop-color="#aaa"/><stop offset="1" stop-color="#d2d2d2"/></linearGradient></defs><rect class="cls-1" y="0" width="60" height="60"/><path class="cls-2" d="M4.9,5.93l3.61,1.7c11.47,5.41,18.3,17.44,17.07,30.06l-2.18,22.31-8-2-8,2,5.34-21.34c2.37-9.47-1.23-19.43-9.11-25.2L0,10.82,4.9,5.93Z"/><path d="M59.9,0l-22.31,2.88,5.2,5-13.31,7.7c-8.2,4.74-14.13,12.61-16.42,21.8l-5.66,22.62H23.4l1.77-17.68c.81-8.14,4.91-15.59,11.35-20.63l10.63-8.33,6.75,8.89L59.9,0Z"/></svg>