<?xml version="1.0" encoding="UTF-8"?><svg id="arrow" xmlns="http://www.w3.org/2000/svg" xmlns:xlink="http://www.w3.org/1999/xlink" viewBox="0 0 60 60"><defs><style>.cls-1{fill:none;}.cls-2{fill:url(#_命名漸層_195);opacity:.4;}.cls-3{font-family:ArialUnicodeMS, 'Arial Unicode MS';font-size:16px;}</style><linearGradient id="_命名漸層_195" x1="30" y1="46.8" x2="30" y2="7.65" gradientTransform="matrix(1, 0, 0, 1, 0, 0)" gradientUnits="userSpaceOnUse"><stop offset=".8" stop-color="#aaa"/><stop offset="1" stop-color="#d2d2d2"/></linearGradient></defs><g><rect class="cls-1" x="0" y="0" width="60" height="60"/><g><path class="cls-2" d="M47.63,27.2h8.07l-.7-5.58h-8.42c-.24-.51-.53-1-.84-1.48l6.61-3.03-3.7-3.66-6.77,2.79c-.53-.37-1.1-.72-1.69-1.04l3.27-4.79-5.18-1.81-3.54,4.61c-.53-.11-1.08-.21-1.63-.28l-.45-5.27h-5.21l-.47,5.27c-.55,.07-1.1,.17-1.63,.28l-3.54-4.61-5.18,1.81,3.27,4.79c-.6,.33-1.17,.68-1.72,1.06l-6.81-2.81-3.7,3.66,6.66,3.05c-.31,.47-.59,.96-.83,1.46H5l-.7,5.58H12.44c.03,.37,.08,.74,.15,1.1l-8.28,3.42,2.72,6.17,8.46-3.88c.32,.36,.67,.71,1.03,1.05l-6.19,7.39,6.56,4.36,5.83-8.1c2.23,.79,4.71,1.23,7.32,1.23,6.03,0,11.36-2.34,14.54-5.91l7.6,3.48,2.54-6.21-7.23-2.98c.07-.37,.12-.74,.15-1.12Zm-17.59,7.28c-6.61,0-11.97-4.15-11.97-9.27s5.36-9.27,11.97-9.27,11.97,4.15,11.97,9.27-5.36,9.27-11.97,9.27Z"/><path d="M47.91,28.5c-.26-.1-.4-.37-.36-.65,.02-.16,.04-.31,.06-.47,0-.04,0-.08,0-.11,.03-.31,.05-.62,.05-.94,0-7.52-7.89-13.61-17.63-13.61s-17.63,6.09-17.63,13.61c0,5.96,4.96,11.02,11.86,12.86,.27,.07,.46,.32,.45,.61l-1.11,20.2h12.8l-1.16-20.67v-.05l-.08-.96c-.05-.59-.22-1.14-.49-1.63-.71-1.33-2.11-2.22-3.7-2.22h-.94c-6.61,0-11.97-4.15-11.97-9.27s5.36-9.27,11.97-9.27,11.97,4.15,11.97,9.27c0,.28-.02,.56-.05,.84-.07,.56-.2,1.11-.38,1.63,0,0,0,.02-.02,.03-1.24,2.1-.24,4.83,1.97,5.84l1.05,.48,4.64,2.13-1.42,2.84,12.22-1.79-7.83-9.38-.57,2.18-3.69-1.5Z"/></g></g><text class="cls-3" transform="translate(20.78 30.5)"><tspan x="0" y="0">10</tspan></text></svg>