<?xml version="1.0" encoding="UTF-8"?><svg id="arrow" xmlns="http://www.w3.org/2000/svg" xmlns:xlink="http://www.w3.org/1999/xlink" viewBox="0 0 60 60"><defs><style>.cls-1{fill:url(#linear-gradient);opacity:.5;}.cls-2{fill:#fff;}</style><linearGradient id="linear-gradient" x1="30" y1="60" x2="30" y2="6.88" gradientTransform="matrix(1, 0, 0, 1, 0, 0)" gradientUnits="userSpaceOnUse"><stop offset=".8" stop-color="#aaa"/><stop offset="1" stop-color="#787878"/></linearGradient></defs><polygon class="cls-1" points="56.94 21.33 41.36 23.69 52.05 11.42 47.48 6.88 35.11 15.4 30.01 18.91 24.91 15.4 12.53 6.88 7.97 11.42 18.7 23.75 3.06 21.33 0 27.96 23.62 35.18 22 60 22.01 60 22.01 60 30.01 58 38 60 38 60 38.01 60 36.4 35.17 60 27.96 56.94 21.33"/><path class="cls-2" d="M38.96,4.12l5.51,4.82-17.36,11.96c-1.77,1.22-2.88,3.19-3.02,5.33l-2.09,33.76h16l-1.74-29.6c-.03-.52,.14-1.04,.49-1.43l13.05-14.59,7.16,7.8L60,0l-21.04,4.12Z"/></svg>