<?xml version="1.0" encoding="UTF-8"?><svg id="arrow" xmlns="http://www.w3.org/2000/svg" xmlns:xlink="http://www.w3.org/1999/xlink" viewBox="0 0 60 60"><defs><style>.cls-1{fill:none;}.cls-2{fill:url(#linear-gradient);opacity:.5;}.cls-3{fill:#fff;}</style><linearGradient id="linear-gradient" x1="-169.5" y1="54" x2="-133.2" y2="17.71" gradientTransform="translate(200)" gradientUnits="userSpaceOnUse"><stop offset=".8" stop-color="#aaa"/><stop offset="1" stop-color="#787878"/></linearGradient></defs><rect class="cls-1" y="0" width="60" height="60"/><path class="cls-2" d="M55,5.93l-3.61,1.7c-11.47,5.41-18.3,17.44-17.07,30.06l2.18,22.31,8-2,8,2-5.34-21.34c-2.37-9.47,1.23-19.43,9.11-25.2l3.62-2.65-4.9-4.88Z"/><path class="cls-3" d="M46.84,37.38c-2.3-9.19-8.23-17.05-16.42-21.8l-13.31-7.7,5.2-5L0,0,6,22.25l6.75-8.89,10.63,8.33c6.44,5.04,10.54,12.5,11.35,20.63l1.77,17.68h16l-5.66-22.62Z"/></svg>