<?xml version="1.0" encoding="UTF-8"?><svg id="arrow" xmlns="http://www.w3.org/2000/svg" xmlns:xlink="http://www.w3.org/1999/xlink" viewBox="0 0 60 60"><defs><style>.cls-1{fill:none;}.cls-2{fill:url(#linear-gradient);}.cls-2,.cls-3{opacity:.5;}.cls-4{fill:#fff;}</style><linearGradient id="linear-gradient" x1="109.39" y1="51.34" x2="146.42" y2="14.31" gradientTransform="translate(156.09) rotate(-180) scale(1 -1)" gradientUnits="userSpaceOnUse"><stop offset=".8" stop-color="#aaa"/><stop offset="1" stop-color="#787878"/></linearGradient></defs><rect class="cls-1" width="60" height="60"/><polygon class="cls-2" points="25.56 5.78 29.73 5.8 34.5 5.82 35.13 15.4 38.04 60 38.02 60 38.02 60 30.03 58 22.04 60 22.04 60 22.02 60 23.25 41.17 3.99 19.99 8.56 15.44 24.17 27.1 25.56 5.78"/><polyline class="cls-3" points="30 58 38 60 30 55 22 60"/><polygon class="cls-4" points="43.23 17.16 30.04 0 16.85 17.16 24.69 16.56 22.04 60 38.04 60 35.39 16.56 43.23 17.16"/></svg>