<?xml version="1.0" encoding="UTF-8"?><svg id="arrow" xmlns="http://www.w3.org/2000/svg" xmlns:xlink="http://www.w3.org/1999/xlink" viewBox="0 0 60 60"><defs><style>.cls-1{fill:none;}.cls-2,.cls-3{fill:#fff;}.cls-4{fill:url(#_命名漸層_13);opacity:.5;}.cls-3{font-family:ArialUnicodeMS, 'Arial Unicode MS';font-size:16px;}</style><linearGradient id="_命名漸層_13" x1="33.22" y1="39.93" x2="33.22" y2="12.71" gradientTransform="matrix(1, 0, 0, 1, 0, 0)" gradientUnits="userSpaceOnUse"><stop offset=".8" stop-color="#aaa"/><stop offset="1" stop-color="#787878"/></linearGradient></defs><g><rect class="cls-1" width="60" height="60"/><path class="cls-4" d="M54.04,27.2l-.6-5.58h-6.86c-2.48-5.2-8.95-8.9-16.55-8.9-9.74,0-17.63,6.09-17.63,13.61s7.89,13.61,17.63,13.61,17.01-5.63,17.59-12.74h6.41Zm-24.01,7.28c-6.61,0-11.97-4.15-11.97-9.27s5.36-9.27,11.97-9.27,11.97,4.15,11.97,9.27-5.36,9.27-11.97,9.27Z"/><path class="cls-2" d="M24.83,39.33v-.05l.08-.96c.05-.59,.22-1.14,.49-1.63,.71-1.33,2.11-2.22,3.7-2.22h.94c6.61,0,11.97-4.15,11.97-9.27h0c-.02-1.97,1.58-3.58,3.55-3.58h5.08l-.31-2.02,9.68,4.81-8.95,5.48-.03-2.62-2.84-.05c-.31,0-.56,.23-.61,.53-.72,5.33-5.41,9.75-11.76,11.45-.27,.07-.46,.32-.45,.61l1.11,20.2h-12.8l1.16-20.67Z"/></g><text class="cls-3" transform="translate(25.23 30.5)"><tspan x="0" y="0">1</tspan></text></svg>