<?xml version="1.0" encoding="UTF-8"?><svg id="arrow" xmlns="http://www.w3.org/2000/svg" viewBox="0 0 60 60"><defs><style>.cls-1{fill:#fff;}</style></defs><path class="cls-1" d="M5.92,5.65l8.46,30.2s4.11-4.12,10.11-5.12,11.1,1.02,20.52,.69,15-5.46,15-5.46L45.22,0s-6.24,3.56-12.82,3.81c-6.57,.25-11.07-1.22-16.32-.99S7.06,5.3,5.92,5.65Z"/><polygon class="cls-1" points="17.96 58.21 17.51 60 16.03 58.72 1.17 3.34 2.14 3.08 3.1 2.82 17.96 58.21"/><circle class="cls-1" cx="2.1" cy="3.09" r="2.1"/><path d="M18.49,11.38l3.36,9.37c3.91-.23,7.36,.14,11.55,.68l-3.99-9.38c-3.66-.35-6.99-1.02-10.93-.67Z"/><path d="M39.35,11.61c-1.52,.29-3.13,.5-4.87,.59-1.81,.1-3.47,0-5.07-.15l-3.42-8.05s3.41,.28,6.14,.22c1.79-.03,3.25-.37,3.25-.37l3.97,7.75"/><path d="M37.99,21.56c-1.57,.05-3.09-.01-4.58-.12l3.95,9.3c2.05,.16,4.34,.3,6.96,.2,1.66-.06,3.38-.23,4.78-.59l-4.91-9.28c-1.77,.28-3.78,.41-6.21,.49Z"/><path d="M49.04,7.95c-2.64,1.97-5.91,2.94-9.69,3.66l4.84,9.45c3.67-.58,6.38-1.42,9.99-4.07-.96-1.59-5.15-9.05-5.15-9.05Z"/><path d="M14.85,34.58s3.76-3.44,9.56-4.41c.2-.03,.75-.11,.75-.11l-3.31-9.31c-.36,.02-.72,.03-1.08,.06-4.75,.48-8.69,3.63-8.82,3.81l2.9,9.95Z"/><path d="M18.49,11.38L15.68,3.33s-2.43-.03-5.01,.89-3.16,1.43-3.96,1.78c.42,1.24,2.59,8.92,2.59,8.92,0,0,3.12-3.16,9.19-3.54Z"/></svg>