<?xml version="1.0" encoding="UTF-8"?><svg id="arrow" xmlns="http://www.w3.org/2000/svg" viewBox="0 0 60 60"><defs><style>.cls-1{fill:none;}.cls-2{fill:#bebebe;}.cls-3{opacity:.6;}</style></defs><rect class="cls-1" x="0" y="0" width="60" height="60"/><path d="M38,5.62h-.25v-1.88C37.75,1.68,36.07,0,34,0h-8C23.93,0,22.25,1.68,22.25,3.75v1.88h-.25c-3.87,0-7,3.13-7,7v13.56l13.8-6.51c.38-.18,.79-.27,1.2-.27,.42,0,.84,.1,1.22,.28l13.78,6.51V12.62c0-3.87-3.13-7-7-7Zm4.5,16.62l-10.2-4.82c-.71-.34-1.5-.52-2.28-.53h-.03c-.77,0-1.55,.18-2.25,.51l-10.23,4.83V12.62c0-2.48,2.02-4.5,4.5-4.5h16c2.48,0,4.5,2.02,4.5,4.5v9.62Z"/><g class="cls-3"><path class="cls-2" d="M59.52,46.85c-.31-.19-.69-.2-1.01-.02h0c-4.26,2.43-9.11,3.65-14.01,3.52-5.37,.1-10.67-1.35-15.23-4.18-4.12-2.59-8.91-3.92-13.78-3.81-6.88,0-10.22,1.85-13.76,3.81l-1.21,.67c-.48,.27-.66,.88-.39,1.36,.27,.48,.88,.66,1.36,.39l1.21-.67c3.31-1.83,6.43-3.56,12.79-3.56s9.49,1.73,12.82,3.57c4.86,3.01,10.48,4.55,16.2,4.43,5.24,.13,10.41-1.17,14.96-3.76,.32-.17,.53-.49,.54-.85s-.17-.7-.48-.89Z"/><path class="cls-2" d="M1.48,41.09l1.21-.67c3.31-1.83,6.43-3.56,12.79-3.56s9.49,1.73,12.82,3.57c4.86,3.01,10.48,4.55,16.2,4.43,5.24,.13,10.41-1.17,14.96-3.76,.32-.17,.53-.49,.54-.85,.01-.36-.17-.7-.48-.89s-.69-.2-1.01-.02h0c-4.26,2.43-9.11,3.65-14.01,3.52-5.37,.1-10.67-1.35-15.23-4.18-4.12-2.59-8.91-3.92-13.78-3.81-6.88,0-10.22,1.85-13.76,3.81l-1.21,.67c-.48,.27-.66,.88-.39,1.36,.27,.48,.88,.66,1.36,.39Z"/><path class="cls-2" d="M59.52,54.35c-.31-.19-.69-.2-1.01-.02h0c-4.26,2.43-9.11,3.65-14.01,3.52-5.37,.1-10.67-1.35-15.23-4.18-4.12-2.59-8.91-3.92-13.78-3.81-6.88,0-10.22,1.85-13.76,3.81l-1.21,.67c-.48,.27-.66,.88-.39,1.36,.27,.48,.88,.66,1.36,.39l1.21-.67c3.31-1.83,6.43-3.56,12.79-3.56s9.49,1.73,12.82,3.57c4.86,3.01,10.48,4.55,16.2,4.43,5.24,.13,10.41-1.17,14.96-3.76,.32-.17,.53-.49,.54-.85,.01-.36-.17-.7-.48-.89Z"/></g><path d="M11.6,35.09c1.17-.15,2.45-.23,3.89-.23,4.87-.1,9.66,1.22,13.78,3.81,4.57,2.83,9.86,4.29,15.23,4.18,.98,.03,1.95,0,2.92-.09,0-.13,.01-.26,.02-.41,.4-5.15,1.48-11.72,3.21-16.59,.19-.49-.04-1.04-.51-1.26l-4.14-1.96-15.57-7.35c-.27-.13-.59-.13-.86,0l-15.57,7.35-4.14,1.96c-.47,.22-.7,.77-.51,1.26,.67,1.82,1.72,6.75,2.25,9.32Z"/></svg>