<?xml version="1.0" encoding="UTF-8"?><svg id="arrow" xmlns="http://www.w3.org/2000/svg" xmlns:xlink="http://www.w3.org/1999/xlink" viewBox="0 0 60 60"><defs><style>.cls-1{fill:none;}.cls-2,.cls-3{fill:#fff;}.cls-4{fill:url(#_命名漸層_13);opacity:.5;}.cls-3{font-family:ArialUnicodeMS, 'Arial Unicode MS';font-size:16px;}</style><linearGradient id="_命名漸層_13" x1="34.05" y1="39.93" x2="34.05" y2="7.65" gradientTransform="matrix(1, 0, 0, 1, 0, 0)" gradientUnits="userSpaceOnUse"><stop offset=".8" stop-color="#aaa"/><stop offset="1" stop-color="#787878"/></linearGradient></defs><g><rect class="cls-1" width="60" height="60"/><path class="cls-4" d="M55.7,27.2l-.7-5.58h-8.42c-2.14-4.48-7.25-7.85-13.49-8.7l-.45-5.27h-5.21l-.47,5.27c-8.28,1.12-14.57,6.69-14.57,13.4,0,7.52,7.89,13.61,17.63,13.61s17.01-5.63,17.59-12.74h8.07Zm-25.66,7.28c-6.61,0-11.97-4.15-11.97-9.27s5.36-9.27,11.97-9.27,11.97,4.15,11.97,9.27-5.36,9.27-11.97,9.27Z"/><path class="cls-2" d="M9.75,19.6l-.31,2.02h3.68c.22,0,.43-.13,.53-.33,2.59-5.03,8.95-8.58,16.39-8.58,9.74,0,17.63,6.09,17.63,13.61,0,5.96-4.96,11.02-11.86,12.86-.27,.07-.46,.32-.45,.61l1.11,20.2h-12.8l1.16-20.67v-.05l.08-.96c.05-.59,.22-1.14,.49-1.63,.71-1.33,2.11-2.22,3.7-2.22h.94c6.61,0,11.97-4.15,11.97-9.27,0-5.12-5.36-9.27-11.97-9.27-4.97,0-9.23,2.35-11.04,5.69-.29,.54-.52,1.12-.68,1.71,0,.01,0,.04-.01,.07-.23,2.15-2.02,3.8-4.18,3.8h-1.68l-3.38,.06-.03,2.62L.07,24.41l9.68-4.81Z"/></g><text class="cls-3" transform="translate(25.23 30.5)"><tspan x="0" y="0">3</tspan></text></svg>