<?xml version="1.0" encoding="UTF-8"?><svg id="arrow" xmlns="http://www.w3.org/2000/svg" xmlns:xlink="http://www.w3.org/1999/xlink" viewBox="0 0 60 60"><defs><style>.cls-1{fill:none;}.cls-2{fill:url(#_命名漸層_195);opacity:.5;}.cls-3{font-family:ArialUnicodeMS, 'Arial Unicode MS';font-size:16px;}</style><linearGradient id="_命名漸層_195" x1="26.83" y1="39.93" x2="26.83" y2="12.71" gradientTransform="matrix(1, 0, 0, 1, 0, 0)" gradientUnits="userSpaceOnUse"><stop offset=".8" stop-color="#aaa"/><stop offset="1" stop-color="#d2d2d2"/></linearGradient></defs><g><rect class="cls-1" x="0" y="0" width="60" height="60"/><path class="cls-2" d="M30.03,12.71c-7.6,0-14.07,3.71-16.55,8.9H6.92l-.92,5.58h6.44c.58,7.11,8.24,12.74,17.59,12.74s17.63-6.09,17.63-13.61-7.89-13.61-17.63-13.61Zm0,21.76c-6.61,0-11.97-4.15-11.97-9.27s5.36-9.27,11.97-9.27,11.97,4.15,11.97,9.27-5.36,9.27-11.97,9.27Z"/><path d="M35.24,39.33v-.05l-.08-.96c-.05-.59-.22-1.14-.49-1.63-.71-1.33-2.11-2.22-3.7-2.22h-.94c-6.61,0-11.97-4.15-11.97-9.27h0c.02-1.97-1.58-3.58-3.55-3.58h-5.08l.31-2.02L.07,24.41l8.95,5.48,.03-2.62,2.84-.05c.31,0,.56,.23,.61,.53,.72,5.33,5.41,9.75,11.76,11.45,.27,.07,.46,.32,.45,.61l-1.11,20.2h12.8l-1.16-20.67Z"/></g><text class="cls-3" transform="translate(25.23 30.5)"><tspan x="0" y="0">1</tspan></text></svg>