<?xml version="1.0" encoding="UTF-8"?><svg id="arrow" xmlns="http://www.w3.org/2000/svg" viewBox="0 0 60 60"><defs><style>.cls-1{fill:none;}.cls-2{fill:#fff;}</style></defs><rect class="cls-1" y="0" width="60" height="60"/><path class="cls-2" d="M58.1,53.39c-2.83-9.85-10.49-17.57-20.32-20.48l-1.8-.53c-.2-.06-.34-.23-.36-.44l-1.28-15.38,7.78,.6L30.04,.11V0l-.04,.05L29.96,0V.11l-12.08,17.05h0l7.77-.6-1.28,15.38c-.02,.21-.16,.38-.36,.44l-1.8,.53c-9.82,2.91-17.48,10.63-20.32,20.48l-1.9,6.61H10.71l.98-5.93c1.21-7.31,6.36-13.34,13.38-15.7l3.6-1.2c.7-.23,1.19-.82,1.33-1.53,.13,.7,.63,1.29,1.33,1.53l3.6,1.2c7.02,2.35,12.17,8.39,13.38,15.7l.98,5.93h10.71l-1.9-6.61Z"/></svg>