<?xml version="1.0" encoding="utf-8"?>
<!-- Generator: Adobe Illustrator 26.3.1, SVG Export Plug-In . SVG Version: 6.00 Build 0)  -->
<svg version="1.1" id="arrow" xmlns="http://www.w3.org/2000/svg" xmlns:xlink="http://www.w3.org/1999/xlink" x="0px" y="0px"
	 viewBox="0 0 60 60" style="enable-background:new 0 0 60 60;" xml:space="preserve">
<style type="text/css">
	.st0{opacity:0.5;fill:url(#SVGID_1_);enable-background:new    ;}
	.st1{fill:none;}
	.st2{fill:#FFFFFF;}
</style>
<linearGradient id="SVGID_1_" gradientUnits="userSpaceOnUse" x1="-1264.4885" y1="698.0867" x2="-1274.3778" y2="664.049" gradientTransform="matrix(-0.4551 -0.8905 0.8905 -0.4551 -1164.7834 -781.0309)">
	<stop  offset="0.8" style="stop-color:#AAAAAA"/>
	<stop  offset="1" style="stop-color:#787878"/>
</linearGradient>
<path class="st0" d="M30.4,25.2l0.1,3.2c0.3,10.1-5.8,19.4-15.2,23.1L8.8,54l-5.9-9.7l7-1.6c7.6-1.8,13.4-8,14.6-15.7l0.6-3.5
	C25.1,23.5,30.4,25.2,30.4,25.2z"/>
<rect y="0" class="st1" width="60" height="60"/>
<polygon class="st2" points="37.9,60 34.3,16.6 42.1,17.2 30,0.1 30,0 30,0.1 30,0 30,0.1 17.9,17.2 25.6,16.6 22,60 38,60 37.9,60 
	38,60 "/>
</svg>
