<?xml version="1.0" encoding="utf-8"?>
<!-- Generator: Adobe Illustrator 26.3.1, SVG Export Plug-In . SVG Version: 6.00 Build 0)  -->
<svg version="1.1" id="arrow" xmlns="http://www.w3.org/2000/svg" xmlns:xlink="http://www.w3.org/1999/xlink" x="0px" y="0px"
	 viewBox="0 0 60 60" style="enable-background:new 0 0 60 60;" xml:space="preserve">
<style type="text/css">
	.st0{opacity:0.5;fill:url(#SVGID_1_);enable-background:new    ;}
	.st1{fill:none;}
	.st2{fill:#FFFFFF;}
</style>
<linearGradient id="SVGID_1_" gradientUnits="userSpaceOnUse" x1="-1189.6915" y1="199.5288" x2="-1199.5808" y2="165.4911" gradientTransform="matrix(0.4551 -0.8905 -0.8905 -0.4551 746.7835 -941.3109)">
	<stop  offset="0.8" style="stop-color:#AAAAAA"/>
	<stop  offset="1" style="stop-color:#787878"/>
</linearGradient>
<path class="st0" d="M29.6,25.2l-0.1,3.2c-0.3,10.1,5.8,19.4,15.2,23.1l6.4,2.5l5.9-9.7l-7-1.6c-7.6-1.8-13.4-8-14.6-15.7l-0.6-3.5
	C34.9,23.5,29.6,25.2,29.6,25.2z"/>
<rect y="0" class="st1" width="60" height="60"/>
<polygon class="st2" points="37.9,60 34.3,16.6 42.1,17.2 30,0.1 30,0 30,0.1 30,0 30,0.1 17.9,17.2 25.6,16.6 22,60 38,60 37.9,60 
	38,60 "/>
</svg>
