<?xml version="1.0" encoding="UTF-8"?><svg id="arrow" xmlns="http://www.w3.org/2000/svg" xmlns:xlink="http://www.w3.org/1999/xlink" viewBox="0 0 60 60"><defs><style>.cls-1{fill:none;}.cls-2{fill:url(#_命名漸層_195);opacity:.5;}.cls-3{font-family:ArialUnicodeMS, 'Arial Unicode MS';font-size:16px;}</style><linearGradient id="_命名漸層_195" x1="34.05" y1="46.8" x2="34.05" y2="7.65" gradientTransform="matrix(1, 0, 0, 1, 0, 0)" gradientUnits="userSpaceOnUse"><stop offset=".8" stop-color="#aaa"/><stop offset="1" stop-color="#d2d2d2"/></linearGradient></defs><g><rect class="cls-1" y="0" width="60" height="60"/><path class="cls-2" d="M47.63,27.2h8.07l-.7-5.58h-8.42c-.24-.51-.53-1-.84-1.48l6.61-3.03-3.7-3.66-6.77,2.79c-.53-.37-1.1-.72-1.69-1.04l3.27-4.79-5.18-1.81-3.54,4.61c-.53-.11-1.08-.21-1.63-.28l-.45-5.27h-5.21l-.47,5.27c-.55,.07-1.1,.17-1.63,.28l-3.54-4.61-5.18,1.81,3.27,4.79c-4.53,2.46-7.48,6.53-7.48,11.13,0,7.52,7.89,13.61,17.63,13.61,2.59,0,5.05-.44,7.27-1.21l5.81,8.08,6.56-4.36-6.16-7.35c.37-.34,.72-.7,1.05-1.06l8.41,3.85,2.72-6.17-8.22-3.39c.07-.37,.12-.74,.15-1.12Zm-29.56-2c0-5.12,5.36-9.27,11.97-9.27s11.97,4.15,11.97,9.27-5.36,9.27-11.97,9.27-11.97-4.15-11.97-9.27Z"/><path d="M20.05,6.32l5.07,6.59c.14,.18,.36,.26,.59,.22,1.39-.27,2.84-.42,4.33-.42,9.74,0,17.63,6.09,17.63,13.61,0,5.96-4.96,11.02-11.87,12.86-.27,.07-.46,.32-.45,.61l1.11,20.2h-12.8l1.16-20.67v-.05l.08-.96c.18-2.18,2-3.85,4.19-3.85h.94c6.61,0,11.97-4.15,11.97-9.27,0-5.12-5.36-9.27-11.97-9.27-.84,0-1.65,.07-2.44,.2-.84,.13-1.64,.34-2.41,.6-.02,0-.05,.02-.09,.03-1.86,.79-4.02,.19-5.16-1.48l-.06-.08-4.69-6.87-3.75,1.8L12.54,.07l9.39,5.69-1.88,.56Z"/></g><text class="cls-3" transform="translate(25.23 30.5)"><tspan x="0" y="0">7</tspan></text></svg>