<?xml version="1.0" encoding="UTF-8"?><svg id="arrow" xmlns="http://www.w3.org/2000/svg" xmlns:xlink="http://www.w3.org/1999/xlink" viewBox="0 0 60 60"><defs><style>.cls-1{fill:url(#linear-gradient);}.cls-2{fill:url(#linear-gradient-2);}.cls-3{opacity:.6;}</style><linearGradient id="linear-gradient" x1="7.74" y1="49.05" x2="7.74" y2="14.49" gradientTransform="matrix(1, 0, 0, 1, 0, 0)" gradientUnits="userSpaceOnUse"><stop offset=".8" stop-color="#aaa"/><stop offset="1" stop-color="#d2d2d2" stop-opacity=".4"/></linearGradient><linearGradient id="linear-gradient-2" x1="-376.78" y1="49.05" x2="-376.78" y2="14.49" gradientTransform="translate(-324.52) rotate(-180) scale(1 -1)" xlink:href="#linear-gradient"/></defs><g class="cls-3"><path class="cls-1" d="M8.6,14.49l-.76,3.05,3.53,3.56c.71,.71,1.01,1.73,.81,2.72l-3.11,15.02c-.21,1.02-.94,1.86-1.93,2.22l-5.66,2.03-1.48,5.96,9.8-4.21c1.58-.68,2.7-2.13,2.97-3.83l2.65-17.14c.25-1.63-.32-3.29-1.52-4.42l-5.3-4.96Z"/></g><g class="cls-3"><path class="cls-2" d="M51.4,14.49l.76,3.05-3.53,3.56c-.71,.71-1.01,1.73-.81,2.72l3.11,15.02c.21,1.02,.94,1.86,1.93,2.22l5.66,2.03,1.48,5.96-9.8-4.21c-1.58-.68-2.7-2.13-2.97-3.83l-2.65-17.14c-.25-1.63,.32-3.29,1.52-4.42l5.3-4.96Z"/></g><polygon points="34.32 16.56 42.1 17.16 30.02 .11 30.02 0 29.98 .05 29.95 0 29.95 .11 17.87 17.16 25.64 16.56 22.02 60 37.95 60 34.32 16.56"/></svg>