<?xml version="1.0" encoding="UTF-8"?><svg id="arrow" xmlns="http://www.w3.org/2000/svg" xmlns:xlink="http://www.w3.org/1999/xlink" viewBox="0 0 60 60"><defs><style>.cls-1{fill:none;}.cls-2,.cls-3{fill:#fff;}.cls-4{fill:url(#_命名漸層_13);opacity:.5;}.cls-3{font-family:ArialUnicodeMS, 'Arial Unicode MS';font-size:16px;}</style><linearGradient id="_命名漸層_13" x1="25.98" y1="46.8" x2="25.98" y2="7.65" gradientTransform="matrix(1, 0, 0, 1, 0, 0)" gradientUnits="userSpaceOnUse"><stop offset=".8" stop-color="#aaa"/><stop offset="1" stop-color="#787878"/></linearGradient></defs><g><rect class="cls-1" width="60" height="60"/><path class="cls-4" d="M40.18,15.2l3.27-4.79-5.18-1.81-3.54,4.61c-.53-.11-1.08-.21-1.63-.28l-.45-5.27h-5.21l-.47,5.27c-.55,.07-1.1,.17-1.63,.28l-3.54-4.61-5.18,1.81,3.27,4.79c-.6,.33-1.17,.68-1.72,1.06l-6.81-2.81-3.7,3.66,6.66,3.05c-.31,.47-.59,.96-.83,1.46H5l-.7,5.58H12.44c.03,.37,.08,.74,.15,1.1l-8.28,3.42,2.72,6.17,8.46-3.88c.32,.36,.67,.71,1.03,1.05l-6.19,7.39,6.56,4.36,5.83-8.1c2.23,.79,4.71,1.23,7.32,1.23,9.74,0,17.63-6.09,17.63-13.61,0-4.6-2.96-8.66-7.48-11.13Zm-10.15,19.28c-6.61,0-11.97-4.15-11.97-9.27s5.36-9.27,11.97-9.27,11.97,4.15,11.97,9.27-5.36,9.27-11.97,9.27Z"/><path class="cls-2" d="M40.02,6.32l-5.07,6.59c-.14,.18-.36,.26-.59,.22-1.39-.27-2.84-.42-4.33-.42-9.74,0-17.63,6.09-17.63,13.61,0,5.96,4.96,11.02,11.87,12.86,.27,.07,.46,.32,.45,.61l-1.11,20.2h12.8l-1.16-20.67v-.05l-.08-.96c-.18-2.18-2-3.85-4.19-3.85h-.94c-6.61,0-11.97-4.15-11.97-9.27s5.36-9.27,11.97-9.27c.84,0,1.65,.07,2.44,.2,.84,.13,1.64,.34,2.41,.6,.02,0,.05,.02,.09,.03,1.86,.79,4.02,.19,5.16-1.48l.06-.08,4.69-6.87,3.75,1.8L47.53,.07l-9.39,5.69,1.88,.56Z"/></g><text class="cls-3" transform="translate(25.23 30.5)"><tspan x="0" y="0">7</tspan></text></svg>