<?xml version="1.0" encoding="UTF-8"?><svg id="arrow" xmlns="http://www.w3.org/2000/svg" xmlns:xlink="http://www.w3.org/1999/xlink" viewBox="0 0 60 60"><defs><style>.cls-1{fill:none;}.cls-2{fill:url(#linear-gradient);opacity:.4;}</style><linearGradient id="linear-gradient" x1="30" y1="59" x2="30" y2="1.21" gradientTransform="matrix(1, 0, 0, 1, 0, 0)" gradientUnits="userSpaceOnUse"><stop offset=".8" stop-color="#aaa"/><stop offset="1" stop-color="#d2d2d2"/></linearGradient></defs><rect class="cls-1" width="60" height="60"/><rect class="cls-1" x="0" y="0" width="60" height="60"/><path class="cls-2" d="M51.68,28.27h8.32l-2.5-8h-6.51c-2.43-5.98-9.04-10.54-17.18-11.64h.03l-.66-7.43h-6.36l-.65,7.38v.05c-8.13,1.11-14.72,5.66-17.15,11.63H2.5L0,28.27H8.32c1.41,6.33,7.34,11.46,15.13,13.33-.09,2.34-1.45,17.4-1.45,17.4l8-5,8,5s-1.7-17.34-1.46-17.39c7.79-1.87,13.73-7.01,15.13-13.33Zm-21.68,7.32c-8.28,0-15-5.19-15-11.59s6.72-11.59,15-11.59,15,5.19,15,11.59-6.72,11.59-15,11.59Z"/><path d="M36.55,41.6l-.12-1.43c-.22-2.59-2.39-4.59-4.99-4.58h-1.44c-1.91,0-3.73-.27-5.41-.77h0c-5.61-1.68-9.59-5.89-9.59-10.81,0-3.15,1.63-6.01,4.27-8.1,1.66,1.74,4.4,4.62,4.4,4.62l4.29-13.08-15.02,3.25c.86,.6,2.06,1.44,2.65,1.84-4.63,3.14-7.58,7.78-7.58,12.89,0,7.4,6.12,13.69,14.67,16.03,.45,.12,.75,.53,.72,1-.29,3.58-1.38,16.56-1.38,16.56h16l-1.45-17.4Z"/></svg>