<?xml version="1.0" encoding="UTF-8"?><svg id="arrow" xmlns="http://www.w3.org/2000/svg" viewBox="0 0 60 60"><defs><style>.cls-1{fill:#fff;}</style></defs><path class="cls-1" d="M47.03,11.24h-.02C44.7,4.17,37.37,0,28.68,0,18.88,0,10.82,5.57,9.72,14.04c0,.06-.03,.13-.03,.19v.06l-3.06,17.37-6.63-1.53,11.84,20.13,13.99-20.13-7.09,1.33-.07-15.46,.03-.58h0v-.03h0v-.02c.32-5.23,4.67-9.37,9.98-9.37,4.82,0,8.84,3.4,9.79,7.94h0l.39,2.06,5.14,44h15.99L47.03,11.24Z"/><path class="cls-1" d="M9.71,14.04l-.02,.19c0-.07,.02-.13,.03-.19h-.01Z"/><path class="cls-1" d="M9.68,14.29v0Z"/></svg>