<?xml version="1.0" encoding="UTF-8"?><svg id="arrow" xmlns="http://www.w3.org/2000/svg" xmlns:xlink="http://www.w3.org/1999/xlink" viewBox="0 0 60 60"><defs><style>.cls-1{fill:none;}.cls-2{fill:url(#linear-gradient);opacity:.4;}</style><linearGradient id="linear-gradient" x1="-150.5" y1="60" x2="-150.5" y2="5.93" gradientTransform="translate(200)" gradientUnits="userSpaceOnUse"><stop offset=".8" stop-color="#aaa"/><stop offset="1" stop-color="#d2d2d2"/></linearGradient></defs><rect class="cls-1" x="0" width="60" height="60"/><polygon class="cls-2" points="39.01 5.93 44 60 52 58 60 60 47.33 5.93 39.01 5.93"/><g><polygon points="10.91 8.84 7.5 21.25 15.06 11.29 10.91 8.84"/><path d="M60,60h-16l-1.61-17.43c-.9-9.71-6.46-18.38-14.91-23.24L11.14,9.92l-3.64,11.33L0,0,23.81,1.88l-8.88,2.87,19.82,8.71c10.07,4.43,17.48,13.34,19.99,24.05l5.27,22.48Z"/><polygon points="23.81 1.88 14.93 4.75 18.97 6.53 23.81 1.88"/></g></svg>