<?xml version="1.0" encoding="UTF-8"?><svg id="arrow" xmlns="http://www.w3.org/2000/svg" xmlns:xlink="http://www.w3.org/1999/xlink" viewBox="0 0 60 60"><defs><style>.cls-1{fill:none;}.cls-2,.cls-3{fill:#fff;}.cls-4{fill:url(#_命名漸層_13);opacity:.5;}.cls-3{font-family:ArialUnicodeMS, 'Arial Unicode MS';font-size:16px;}</style><linearGradient id="_命名漸層_13" x1="25.98" y1="39.93" x2="25.98" y2="7.65" gradientTransform="matrix(1, 0, 0, 1, 0, 0)" gradientUnits="userSpaceOnUse"><stop offset=".8" stop-color="#aaa"/><stop offset="1" stop-color="#787878"/></linearGradient></defs><g><rect class="cls-1" width="60" height="60"/><path class="cls-4" d="M33.09,12.92l-.45-5.27h-5.21l-.47,5.27c-6.24,.84-11.35,4.21-13.49,8.7H5l-.7,5.58H12.44c.58,7.11,8.24,12.74,17.59,12.74s17.63-6.09,17.63-13.61c0-6.71-6.29-12.28-14.57-13.4Zm-3.06,21.55c-6.61,0-11.97-4.15-11.97-9.27s5.36-9.27,11.97-9.27,11.97,4.15,11.97,9.27-5.36,9.27-11.97,9.27Z"/><g><rect class="cls-1" x="0" y="0" width="60" height="60"/><path class="cls-2" d="M35.24,39.33v-.05l-.08-.96c-.18-2.18-2-3.85-4.19-3.85h-.94c-6.61,0-11.97-4.15-11.97-9.27,0-4.22,3.63-7.77,8.61-8.9,.6-.14,1.22-.24,1.85-.3,0,0,.03,0,.08,0,2.53,.11,4.58-2.02,4.36-4.54v-.14l-.32-3.68,2.92,.23L30.02,0l-5.58,7.89,3.01-.23-.43,4.8c-.02,.27-.23,.49-.51,.54-8.05,1.26-14.11,6.75-14.11,13.33,0,5.96,4.96,11.02,11.87,12.86,.27,.07,.46,.32,.45,.61l-1.11,20.2h12.8l-1.16-20.67Z"/></g></g><text class="cls-3" transform="translate(25.23 30.5)"><tspan x="0" y="0">2</tspan></text></svg>