<?xml version="1.0" encoding="UTF-8"?><svg id="arrow" xmlns="http://www.w3.org/2000/svg" xmlns:xlink="http://www.w3.org/1999/xlink" viewBox="0 0 60 60"><defs><style>.cls-1{fill:url(#linear-gradient);opacity:.4;}</style><linearGradient id="linear-gradient" x1="30" y1="59.95" x2="30" y2="-.05" gradientTransform="matrix(1, 0, 0, 1, 0, 0)" gradientUnits="userSpaceOnUse"><stop offset="0" stop-color="#d2d2d2"/><stop offset=".2" stop-color="#aaa"/><stop offset=".8" stop-color="#aaa"/><stop offset="1" stop-color="#d2d2d2"/></linearGradient></defs><path class="cls-1" d="M60,59.95L45.52,7.3C44.33,2.95,40.38-.05,35.88-.05H0V22.47H26.69c1.3,0,2.39,1,2.49,2.3l.08,1c.12,1.45-1.03,2.7-2.49,2.7H0v8H27.81c1.3,0,2.39,1,2.49,2.3l1.7,21.17h28Z"/><path d="M41.52,9.87c-.69-2.64-3.07-4.48-5.8-4.48H19.3l.79-3.45L0,7.26l15.82,13.26,2.01-8.74h13.95c.5,0,.93,.37,.99,.87l6.25,47.31h15.98L41.52,9.87Z"/></svg>