<?xml version="1.0" encoding="UTF-8"?><svg id="arrow" xmlns="http://www.w3.org/2000/svg" xmlns:xlink="http://www.w3.org/1999/xlink" viewBox="0 0 60 60"><defs><style>.cls-1{fill:none;}.cls-2{fill:url(#linear-gradient);opacity:.4;}</style><linearGradient id="linear-gradient" x1="30" y1="60" x2="30" y2="6.87" gradientTransform="matrix(1, 0, 0, 1, 0, 0)" gradientUnits="userSpaceOnUse"><stop offset=".8" stop-color="#aaa"/><stop offset="1" stop-color="#d2d2d2"/></linearGradient></defs><rect class="cls-1" y="0" width="60" height="60"/><polygon class="cls-2" points="56.94 21.33 41.36 23.69 52.05 11.42 47.48 6.87 35.11 15.4 30.01 18.91 24.91 15.4 12.53 6.87 7.97 11.42 18.7 23.75 3.06 21.33 0 27.96 23.62 35.18 22 60 22.01 60 22.01 60 30.01 58 38 60 38 60 38.01 60 36.4 35.17 60 27.96 56.94 21.33"/><path d="M35.91,26.24c-.13-2.15-1.24-4.11-3.02-5.33L15.53,8.94l5.51-4.82L0,0,3.04,22.18l7.16-7.8,13.05,14.59c.34,.39,.52,.91,.49,1.43l-1.74,29.6h16l-2.09-33.76Z"/></svg>